#!OML:ASF E:\emotionWalksFemale\Project 1\Capture day 1\Session 1\Female1.ASF
:FULLY-SPECIFIED
:DEGREES
1558
root 8.66833 15.2719 -35.8877 1.58127 -0.993177 -1.98606
lowerback 9.13336 1.42515 1.67796
upperback 2.15571 2.07083 0.697104
thorax -2.84743 1.0194 -0.457652
lowerneck -6.55917 0.890678 -1.51515
upperneck 38.6092 3.18413 -3.76088
head 14.4319 0.714457 -0.837525
rclavicle -2.70844e-015 -2.98177e-016
rhumerus -38.1905 26.6346 -100.395
rradius 32.1416
rwrist 10.5654
rhand -7.08542 -49.0181
rfingers 7.12502
rthumb 18.7887 -78.1307
lclavicle -2.70844e-015 -2.98177e-016
lhumerus -33.3677 4.73437 84.6111
lradius 36.0356
lwrist -13.6355
lhand -2.25499 -30.0708
lfingers 7.12502
lthumb 23.4288 -1.47712
rfemur 5.33756 9.30295 35.666
rtibia 11.2873
rfoot -19.0312 -38.851
rtoes 18.0206
lfemur -30.4376 -19.5373 -13.0854
ltibia 28.785
lfoot -19.1679 18.3563
ltoes -5.27694
1559
root 8.67899 15.2741 -35.838 1.70803 -1.1396 -1.97751
lowerback 9.03655 1.48079 1.64278
upperback 2.1535 2.13821 0.666606
thorax -2.79496 1.05353 -0.474127
lowerneck -6.5877 0.878854 -1.55512
upperneck 38.6961 3.17489 -3.74183
head 14.4795 0.705023 -0.824981
rclavicle -1.95803e-014 -4.47266e-015
rhumerus -38.5968 27.0806 -100.836
rradius 32.2542
rwrist 9.04374
rhand -8.23924 -48.8772
rfingers 7.12502
rthumb 17.6786 -78.0935
lclavicle -1.95803e-014 -4.47266e-015
lhumerus -33.3824 4.99979 84.4935
lradius 35.9901
lwrist -13.6643
lhand -2.5316 -30.6454
lfingers 7.12502
lthumb 23.1634 -2.01808
rfemur 5.40772 9.29367 35.5925
rtibia 11.2765
rfoot -18.886 -38.8149
rtoes 17.4579
lfemur -30.3732 -19.4517 -13.1702
ltibia 28.8965
lfoot -19.0168 18.7565
ltoes -5.5061
1560
root 8.68751 15.2688 -35.7958 1.57761 -1.09576 -1.97066
lowerback 9.35579 1.46969 1.53753
upperback 2.18024 2.12019 0.678623
thorax -2.94864 1.0438 -0.409744
lowerneck -6.53013 0.852694 -1.46765
upperneck 38.6706 3.17309 -3.90521
head 14.4597 0.697333 -0.908536
rclavicle -2.28727e-014 -1.39149e-015
rhumerus -38.7285 27.0978 -100.896
rradius 32.3325
rwrist 8.71059
rhand -7.43908 -49.3041
rfingers 7.12502
rthumb 18.4485 -78.4493
lclavicle -2.28727e-014 -1.39149e-015
lhumerus -33.3407 5.1491 84.4791
lradius 36.1073
lwrist -13.2702
lhand -2.23396 -30.2202
lfingers 7.12502
lthumb 23.449 -1.62903
rfemur 5.71716 9.05652 35.5752
rtibia 11.3084
rfoot -19.0939 -38.6473
rtoes 17.6077
lfemur -30.0334 -19.252 -13.4272
ltibia 28.9699
lfoot -18.8602 18.7345
ltoes -6.42903
1561
root 8.69953 15.2661 -35.7414 1.91263 -1.03216 -1.95418
lowerback 8.9059 1.4542 1.5238
upperback 2.16878 2.0887 0.654479
thorax -2.71159 1.03046 -0.410375
lowerneck -6.53065 0.852526 -1.49986
upperneck 38.639 3.1642 -3.86831
head 14.4429 0.693986 -0.888168
rclavicle 2.78299e-015 -4.17448e-015
rhumerus -38.543 26.6287 -100.532
rradius 32.3214
rwrist 10.0528
rhand -6.92595 -48.8258
rfingers 7.12502
rthumb 18.942 -77.9235
lclavicle 2.78299e-015 -4.17448e-015
lhumerus -33.2728 5.36699 84.4261
lradius 36.1197
lwrist -13.1576
lhand -2.47448 -30.4359
lfingers 7.12502
lthumb 23.2182 -1.81551
rfemur 5.61096 9.04529 35.4772
rtibia 11.2484
rfoot -19.4382 -38.5492
rtoes 18.019
lfemur -30.2019 -19.1277 -13.5059
ltibia 29.0327
lfoot -18.8071 18.6525
ltoes -6.3973
1562
root 8.71331 15.2662 -35.6818 2.22591 -0.856919 -1.90067
lowerback 8.33348 1.40351 1.53221
upperback 2.22535 2.0086 0.611202
thorax -2.33556 0.994288 -0.433801
lowerneck -6.57883 0.8542 -1.59281
upperneck 38.6147 3.15447 -3.77834
head 14.4384 0.687565 -0.834921
rclavicle -9.25591e-015 7.30534e-015
rhumerus -38.6764 26.8156 -100.664
rradius 32.3343
rwrist 9.66134
rhand -7.94911 -48.4103
rfingers 7.12502
rthumb 17.9578 -77.6012
lclavicle -9.25591e-015 7.30534e-015
lhumerus -33.2208 5.57874 84.3685
lradius 36.1697
lwrist -13.082
lhand -2.82869 -30.8901
lfingers 7.12502
lthumb 22.8784 -2.22724
rfemur 5.55146 9.07895 35.3779
rtibia 11.1759
rfoot -20.0053 -38.6369
rtoes 18.8061
lfemur -30.3757 -19.1269 -13.6258
ltibia 29.0962
lfoot -18.2801 18.7958
ltoes -7.72469
1563
root 8.72405 15.2704 -35.6253 2.26861 -1.09425 -1.90875
lowerback 8.43982 1.50257 1.40671
upperback 2.17986 2.13287 0.637336
thorax -2.44493 1.05539 -0.353082
lowerneck -6.65278 0.837687 -1.61183
upperneck 38.7138 3.17031 -3.84974
head 14.5058 0.680001 -0.86012
rclavicle -2.28602e-015 -1.15295e-014
rhumerus -39.0222 26.921 -100.806
rradius 32.3782
rwrist 9.40816
rhand -7.14882 -49.3362
rfingers 7.12502
rthumb 18.7277 -78.4547
lclavicle -2.28602e-015 -1.15295e-014
lhumerus -33.3823 5.71558 84.3679
lradius 36.2417
lwrist -12.9832
lhand -3.04384 -30.8129
lfingers 7.12502
lthumb 22.6719 -2.12463
rfemur 5.88458 9.17799 35.3338
rtibia 10.9197
rfoot -20.0471 -38.5319
rtoes 19.2056
lfemur -30.1947 -19.0428 -13.7151
ltibia 29.1873
lfoot -17.9175 19.0706
ltoes -8.74447
